<svg width="20" height="13" viewBox="0 0 20 13" fill="none" xmlns="http://www.w3.org/2000/svg">
    <path
        d="M0.339107 7.31873L5.67004 12.6636C5.88565 12.8797 6.1777 13.0007 6.48194 13C6.78618 12.9993 7.07769 12.877 7.29234 12.66C7.507 12.4429 7.62721 12.1489 7.62654 11.8426C7.62586 11.5364 7.50436 11.2429 7.28875 11.0268L3.85709 7.58669L18.9218 7.58669C19.208 7.58669 19.4825 7.47224 19.6849 7.26851C19.8873 7.06478 20.001 6.78846 20.001 6.50034C20.001 6.21222 19.8873 5.9359 19.6849 5.73217C19.4825 5.52844 19.208 5.41399 18.9218 5.41399L3.85709 5.41399L7.28875 1.97388C7.39551 1.86688 7.48028 1.73977 7.53824 1.59979C7.5962 1.45981 7.6262 1.3097 7.62654 1.15805C7.62687 1.0064 7.59753 0.85617 7.54019 0.715933C7.48285 0.575696 7.39863 0.448201 7.29234 0.340729C7.07769 0.12368 6.78618 0.001363 6.48194 0.000684013C6.33129 0.000347379 6.18206 0.0298836 6.04275 0.0876077C5.90345 0.145332 5.7768 0.230114 5.67004 0.33711L0.339107 5.68196C0.231653 5.78904 0.146352 5.9165 0.088138 6.05697C0.0299238 6.19744 -5.01726e-05 6.34814 -5.01593e-05 6.50034C-5.0146e-05 6.65255 0.0299239 6.80324 0.0881381 6.94372C0.146352 7.08419 0.231653 7.21165 0.339107 7.31873Z"
        fill="#1E2625" />
</svg>