<svg width="57" height="57" viewBox="0 0 57 57" fill="none" xmlns="http://www.w3.org/2000/svg">
    <circle cx="28.5" cy="28.5" r="28.5" fill="#EE725A" />
    <path
        d="M23.5757 41C21.2233 41 19.2583 40.1379 17.7638 38.4415C12.9207 33.0185 14.2214 20.949 14.2768 20.4484C14.3044 20.1703 14.5812 19.9479 14.8579 19.9757C15.1347 20.0035 15.3561 20.2816 15.3284 20.5597C15.3284 20.6709 14.0554 32.657 18.5388 37.7184C19.8395 39.1924 21.5277 39.9154 23.5757 39.9154C28.917 39.9154 31.7675 36.6895 32.2934 30.0151C32.321 29.8204 32.321 29.5979 32.3487 29.3476C32.5148 26.8447 32.7915 22.6732 35.6974 22.6732C36.8598 22.6732 37.2749 24.0081 37.69 25.2874C38.2712 27.1228 38.6587 27.8459 39.5443 27.679C40.596 27.4565 40.9004 25.4542 41.2048 23.6744C41.5092 21.7277 41.8137 19.92 43.1698 19.92C43.4742 19.92 43.6956 20.1703 43.6956 20.4484C43.6956 20.7543 43.4465 20.9768 43.1698 20.9768C42.6993 20.9768 42.4225 22.701 42.2288 23.8412C41.8967 25.9548 41.5092 28.3465 39.7657 28.7358C37.8284 29.153 37.1642 27.1228 36.6937 25.6489C36.417 24.8146 36.0849 23.7856 35.6974 23.7856C33.7878 23.7856 33.5664 27.3453 33.4004 29.4867C33.3727 29.737 33.3727 29.9594 33.345 30.1541C32.7638 37.3291 29.4705 41 23.5757 41Z"
        fill="#F8F8F8" />
    <path
        d="M14.858 18.5852C15.2554 18.5852 15.5775 18.2614 15.5775 17.8621C15.5775 17.4628 15.2554 17.139 14.858 17.139C14.4606 17.139 14.1384 17.4628 14.1384 17.8621C14.1384 18.2614 14.4606 18.5852 14.858 18.5852Z"
        fill="#7DB1AF" />
    <path
        d="M14.8579 18.7242C14.3875 18.7242 14 18.3349 14 17.8621C14 17.3893 14.3875 17 14.8579 17C15.3284 17 15.7159 17.3893 15.7159 17.8621C15.7159 18.3349 15.3284 18.7242 14.8579 18.7242ZM14.8579 17.2503C14.5258 17.2503 14.2768 17.5284 14.2768 17.8343C14.2768 18.168 14.5535 18.4183 14.8579 18.4183C15.19 18.4183 15.4391 18.1402 15.4391 17.8343C15.4391 17.5284 15.19 17.2503 14.8579 17.2503Z"
        fill="#7DB1AF" />
    <path
        d="M43.1421 18.5852C43.5395 18.5852 43.8617 18.2614 43.8617 17.8621C43.8617 17.4628 43.5395 17.139 43.1421 17.139C42.7447 17.139 42.4225 17.4628 42.4225 17.8621C42.4225 18.2614 42.7447 18.5852 43.1421 18.5852Z"
        fill="#7DB1AF" />
    <path
        d="M43.1421 18.7242C42.6716 18.7242 42.2841 18.3349 42.2841 17.8621C42.2841 17.3893 42.6716 17 43.1421 17C43.6125 17 44 17.3893 44 17.8621C44 18.3349 43.6125 18.7242 43.1421 18.7242ZM43.1421 17.2503C42.8099 17.2503 42.5609 17.5284 42.5609 17.8343C42.5609 18.168 42.8376 18.4183 43.1421 18.4183C43.4742 18.4183 43.7232 18.1402 43.7232 17.8343C43.7232 17.5284 43.4742 17.2503 43.1421 17.2503Z"
        fill="#7DB1AF" />
    <path
        d="M29.9133 20.4484C29.9133 20.4484 29.6642 20.365 29.2491 20.3093C29.0277 20.2815 28.7786 20.2537 28.5018 20.2537C28.2251 20.2537 27.893 20.2815 27.5609 20.365C27.2288 20.4484 26.8967 20.5874 26.5922 20.7821C26.2878 20.9768 25.9834 21.2549 25.7343 21.5886C25.4852 21.9223 25.2638 22.3117 25.0701 22.701C24.9041 23.1181 24.738 23.5631 24.5996 24.0081C24.5443 24.2305 24.4613 24.453 24.4336 24.7033C24.3782 24.9258 24.3229 25.1761 24.2952 25.3986C24.2675 25.621 24.2122 25.8713 24.1845 26.0938C24.1568 26.3163 24.1291 26.5666 24.0738 26.7891C24.0184 27.234 23.9631 27.679 23.9077 28.0961C23.8801 28.5133 23.8247 28.9026 23.797 29.292C23.7694 29.6535 23.7417 29.9872 23.714 30.2931C23.6863 30.599 23.6587 30.8493 23.6587 31.0718C23.631 31.5168 23.5756 31.767 23.5756 31.767C23.5756 31.767 23.5203 31.5168 23.4373 31.0996C23.3819 30.8215 23.3542 30.5434 23.2989 30.2375C23.2712 29.9316 23.2159 29.5979 23.1882 29.2085C23.1605 28.847 23.1328 28.4298 23.1052 27.9849C23.1052 27.5399 23.1052 27.095 23.1328 26.6222C23.1605 26.3719 23.1605 26.1494 23.1882 25.8991C23.2159 25.6489 23.2435 25.3986 23.2712 25.1483C23.2989 24.898 23.3542 24.6477 23.4096 24.3974C23.4649 24.1471 23.5203 23.8968 23.6033 23.6465C23.7417 23.146 23.9354 22.6454 24.1568 22.2004C24.4059 21.7276 24.6827 21.2827 25.0148 20.9212C25.3745 20.5318 25.762 20.2259 26.2048 20.0312C26.6476 19.8366 27.0904 19.7253 27.4779 19.6975C28.2804 19.6419 28.917 19.8644 29.3044 20.059C29.4981 20.1425 29.6642 20.2537 29.7472 20.3093C29.8579 20.3928 29.9133 20.4484 29.9133 20.4484Z"
        fill="#F8F8F8" />
    <path
        d="M26.7583 33.6581C26.7583 33.6581 26.7583 33.6859 26.7583 33.7694C26.7583 33.825 26.7583 33.9362 26.7307 34.0475C26.703 34.2699 26.5923 34.6037 26.4262 34.9652C26.2325 35.3267 25.9558 35.716 25.4853 36.0498C25.2639 36.2166 25.0148 36.3835 24.7104 36.4669C24.4059 36.5782 24.0738 36.6338 23.7417 36.6338C23.4096 36.6338 23.0775 36.5503 22.7731 36.4669C22.4687 36.3557 22.2196 36.2166 21.9982 36.022C21.7768 35.8551 21.6107 35.6604 21.4447 35.4936C21.3063 35.2989 21.1679 35.132 21.0849 34.9374C20.9742 34.7705 20.9189 34.5758 20.8635 34.4368C20.8082 34.2977 20.7805 34.1587 20.7528 34.0196C20.7251 33.9084 20.7251 33.7972 20.6974 33.7415C20.6974 33.6859 20.6974 33.6303 20.6974 33.6303V33.6025C20.6974 33.5747 20.7251 33.5469 20.7528 33.5469C20.7805 33.5469 20.7805 33.5469 20.7805 33.5747C20.7805 33.5747 20.8635 33.6581 20.9742 33.825C21.0296 33.9084 21.1126 33.9918 21.2233 34.1031C21.3063 34.2143 21.417 34.3256 21.5554 34.4646C21.6661 34.6037 21.8045 34.7149 21.9705 34.8539C22.1366 34.9652 22.3026 35.1042 22.4687 35.2155C22.6624 35.3267 22.8561 35.4101 23.0775 35.4936C23.2989 35.5492 23.5203 35.6048 23.7417 35.6048C23.9631 35.6048 24.1845 35.577 24.4059 35.5214C24.6273 35.4658 24.8211 35.3823 25.0148 35.2711C25.4023 35.0486 25.7067 34.7983 25.9281 34.548C26.1772 34.2977 26.3432 34.0753 26.4816 33.9084C26.5923 33.7415 26.6753 33.6581 26.6753 33.6581C26.6753 33.6303 26.7307 33.6303 26.7307 33.6303L26.7583 33.6581Z"
        fill="#F8F8F8" />
    <path
        d="M30.3284 25.5654C30.3007 25.8713 30.2454 26.1772 30.1623 26.4831C30.0793 26.7891 29.9686 27.095 29.8302 27.3731C29.6919 27.6512 29.5258 27.9571 29.2767 28.2074C29.166 28.3464 29 28.4577 28.8339 28.5689C28.6679 28.6801 28.4465 28.7636 28.2527 28.7914C28.0313 28.8192 27.8099 28.8192 27.5885 28.7358C27.3948 28.6801 27.2011 28.5967 27.035 28.4855C26.7306 28.263 26.4815 28.0127 26.2878 27.7346C26.0941 27.4565 25.928 27.1784 25.8173 26.8725C25.762 26.7334 25.7066 26.5666 25.6513 26.4275C25.5959 26.2885 25.5682 26.1216 25.5129 25.9548L26.1218 25.9269C25.9834 26.2885 25.845 26.65 25.7066 27.0393C25.6236 27.234 25.5406 27.4009 25.4852 27.5955C25.4022 27.7902 25.3192 27.9571 25.2361 28.1517C25.2361 27.9571 25.2638 27.7624 25.2915 27.5677C25.3192 27.3731 25.3192 27.1784 25.3468 26.9837C25.4022 26.5944 25.4575 26.205 25.5129 25.8157C25.5406 25.6488 25.7066 25.5376 25.8727 25.5654C25.9557 25.5932 26.0387 25.621 26.0941 25.7045L26.1494 25.7879L26.3708 26.1494C26.4539 26.2607 26.5369 26.3997 26.6199 26.511C26.786 26.7334 26.952 26.9559 27.1181 27.1784C27.2841 27.3731 27.4778 27.5677 27.6716 27.679C27.8653 27.7902 28.0037 27.8458 28.1697 27.8458C28.3081 27.8458 28.5018 27.7624 28.6956 27.6234C28.8893 27.4843 29.083 27.2896 29.2767 27.0672C29.4705 26.8447 29.6365 26.6222 29.8302 26.3997C29.9686 26.0382 30.1347 25.8157 30.3284 25.5654Z"
        fill="#F8F8F8" />
    <path
        d="M29.8856 27.373C29.8856 27.4008 29.8856 27.4008 29.8856 27.4286C29.8856 27.4564 29.9133 27.5399 29.941 27.5955C29.9963 27.7345 30.107 27.9292 30.2454 28.0961C30.3285 28.1795 30.4115 28.2629 30.4945 28.3185C30.5499 28.3464 30.5775 28.3742 30.6329 28.402C30.6882 28.4298 30.7159 28.4576 30.7713 28.4576C30.8543 28.4854 30.9373 28.5132 30.9927 28.541C31.048 28.5688 31.0757 28.5688 31.0757 28.5688C31.0757 28.5688 31.048 28.5688 30.9927 28.5966C30.9373 28.6245 30.8543 28.6245 30.7713 28.6523C30.7159 28.6523 30.6606 28.6523 30.6052 28.6523C30.5499 28.6523 30.4945 28.6523 30.4115 28.6523C30.2731 28.6523 30.1347 28.6245 29.9963 28.5688C29.7196 28.4854 29.4428 28.3185 29.2768 28.1795C29.1938 28.1239 29.1107 28.0404 29.0554 27.9848C29.0277 27.957 29 27.9292 29 27.9292C28.9724 27.9014 28.9724 27.9014 28.9724 27.9014C28.834 27.6511 28.917 27.3174 29.1661 27.1783C29.4152 27.0115 29.7196 27.1227 29.8856 27.373Z"
        fill="#F8F8F8" />
    <path
        d="M29.2214 28.2908C29.2214 28.2908 29.2214 28.3186 29.2214 28.3464C29.2214 28.3742 29.1937 28.4298 29.1937 28.4855C29.166 28.5967 29.166 28.7636 29.166 28.9304C29.166 29.0973 29.1937 29.2363 29.2767 29.3198C29.3044 29.3476 29.3044 29.3754 29.3321 29.3754C29.3597 29.4032 29.3597 29.4032 29.3874 29.4032C29.4151 29.431 29.4428 29.431 29.4428 29.431C29.4428 29.431 29.4151 29.431 29.3874 29.4588C29.3597 29.4866 29.2767 29.4866 29.1937 29.4588C29.0276 29.431 28.8616 29.2919 28.6955 29.1529C28.5572 29.0138 28.4188 28.847 28.3357 28.7357C28.2804 28.6801 28.2527 28.6245 28.225 28.5689C28.1974 28.5133 28.1974 28.5133 28.1974 28.5133C28.142 28.2352 28.3081 27.9571 28.5848 27.8736C28.8893 27.818 29.166 27.9849 29.2214 28.2908Z"
        fill="#F8F8F8" />
</svg>