<svg width="11" height="18" viewBox="0 0 11 18" fill="none" xmlns="http://www.w3.org/2000/svg">
<g clip-path="url(#clip0_378_2538)">
<path d="M1.59999 17.97C1.38968 17.9719 1.18116 17.9312 0.986971 17.8505C0.792781 17.7697 0.61693 17.6505 0.469986 17.5C0.320927 17.353 0.202566 17.1779 0.121778 16.9847C0.0409912 16.7916 -0.000610352 16.5844 -0.000610352 16.375C-0.000610352 16.1657 0.0409912 15.9584 0.121778 15.7653C0.202566 15.5722 0.320927 15.397 0.469986 15.25L6.74999 8.97001L0.469986 2.72001C0.170291 2.42164 0.00139735 2.01644 0.000459671 1.59355C-0.000478011 1.17065 0.166618 0.764708 0.464987 0.465014C0.763355 0.165319 1.16856 -0.00357499 1.59145 -0.00451268C2.01434 -0.00545036 2.42029 0.161644 2.71999 0.460013L10.13 7.84001C10.2793 7.98786 10.3979 8.16386 10.4788 8.35781C10.5598 8.55177 10.6014 8.75985 10.6014 8.97001C10.6014 9.18017 10.5598 9.38825 10.4788 9.58221C10.3979 9.77617 10.2793 9.95216 10.13 10.1L2.71999 17.48C2.57521 17.632 2.4016 17.7536 2.2093 17.8377C2.017 17.9219 1.80986 17.9668 1.59999 17.97Z" fill="#1E2625"/>
</g>
<defs>
<clipPath id="clip0_378_2538">
<rect width="10.6" height="17.95" fill="white"/>
</clipPath>
</defs>
</svg>
