<svg xmlns="http://www.w3.org/2000/svg" viewBox="0 0 30.58 42.86">
    <defs>
        <style>
            .cls-1 {
                fill: #f8bc8e;
            }

            .cls-2 {
                fill: #1d2625;
            }

            .cls-3 {
                fill: #f0f0f0;
            }
        </style>
    </defs>
    <g id="Layer_2" data-name="Layer 2">
        <g id="Layer_1-2" data-name="Layer 1">
            <path class="cls-1"
                d="M24.55,33.42c.66,4.46-3,8.44-7.82,8.44H14c-4.8,0-8.49-4-7.83-8.44l.16-1.09a50.51,50.51,0,0,0,.17-13.62l-1-7.81a7.84,7.84,0,0,1,4-7.74l2-1.15a7.69,7.69,0,0,1,7.6,0l2,1.15a7.84,7.84,0,0,1,4,7.74l-1,7.81a50.92,50.92,0,0,0,.17,13.62Z" />
            <path class="cls-2"
                d="M16.16,38.52H14.61a5.64,5.64,0,0,1-4.28-1.92,5.07,5.07,0,0,1-1.2-4.07l.09-.62a1,1,0,0,1,1-.86H20.56a1,1,0,0,1,1,.86l.1.62a5.14,5.14,0,0,1-1.2,4.07A5.66,5.66,0,0,1,16.16,38.52Zm-5.08-5.47a3.07,3.07,0,0,0,.76,2.24,3.66,3.66,0,0,0,2.77,1.23h1.55a3.63,3.63,0,0,0,2.77-1.23,3,3,0,0,0,.76-2.24Z" />
            <path class="cls-2"
                d="M28.19,13.27,26,12.51,26.17,11a8.87,8.87,0,0,0-4.51-8.73l-2-1.14a8.63,8.63,0,0,0-8.6,0l-2,1.14A8.87,8.87,0,0,0,4.58,11l.18,1.49-2.4.83A3.64,3.64,0,0,0,0,16.74v2a1,1,0,0,0,.43.82,1,1,0,0,0,.57.18,1,1,0,0,0,.35-.06l4.1-1.53.09.7a49.74,49.74,0,0,1-.17,13.35l-.16,1.1a8,8,0,0,0,1.92,6.48,9.07,9.07,0,0,0,6.9,3.1h2.7a9.09,9.09,0,0,0,6.9-3.1,8,8,0,0,0,1.91-6.48l-.16-1.1a49.74,49.74,0,0,1-.16-13.35l.08-.69,3.93,1.46a.84.84,0,0,0,.35.07,1,1,0,0,0,1-1v-2A3.66,3.66,0,0,0,28.19,13.27ZM8.1,15.41c-.08.15-.14.3-.22.49a4.13,4.13,0,0,0-.19.52,6.9,6.9,0,0,0-.25,1.07l0,.19L7,14.38a3.69,3.69,0,0,1,.64.34,1.07,1.07,0,0,1,.37.49l0,.07h0ZM2,17.28v-.54a1.63,1.63,0,0,1,1-1.52l2-.68.19,1.55ZM23.4,32.47l.17,1.1a6,6,0,0,1-1.46,4.88,7.06,7.06,0,0,1-5.38,2.41H14a7.08,7.08,0,0,1-5.39-2.41,6,6,0,0,1-1.45-4.88l.16-1.1a51.25,51.25,0,0,0,.53-9l.39.25a4.9,4.9,0,0,0,.51.25,4.73,4.73,0,0,0,2.19.36,4,4,0,0,0,1.5-.41,4.77,4.77,0,0,0,1.38-1.05,6.6,6.6,0,0,0,1-1.51,10.92,10.92,0,0,0,.63-1.68c.08-.29.16-.58.21-.87l.05-.23c0-.21.09-.42.11-.63l0-.12c0-.24.07-.49.09-.73l.07-.83c0-.49,0-1,0-1.41v-.16c0-.49,0-1-.05-1.39s-.07-.83-.11-1.17-.06-.49-.09-.69l0-.22c-.08-.49-.13-.78-.13-.78l-.29-1.57-.13,1.59s0,.29-.06.79l0,.89c0,.35-.06.74-.08,1.16L15,14.65q-.06.72-.15,1.5l-.11.78-.13.81a5.59,5.59,0,0,1-.12.56l0,.23a6.15,6.15,0,0,1-.18.71l0,.07a9,9,0,0,1-.53,1.49,5.7,5.7,0,0,1-.76,1.25,3.76,3.76,0,0,1-1,.89,3.57,3.57,0,0,1-1.1.44,4.81,4.81,0,0,1-1.89,0,4.24,4.24,0,0,1-.71-.18l-.37-.14c0-1.49-.16-3-.35-4.47l0-.42.36-.52.41-.6.47-.68L9,16,9,16a3.72,3.72,0,0,1,.61-.64,1.15,1.15,0,0,1,.58-.27.81.81,0,0,1,.53.17,3.35,3.35,0,0,1,.6.56,7.9,7.9,0,0,1,.57.76c.09.13.18.27.26.41l.16.27.06.11.06.1a.49.49,0,0,0,.33.23.47.47,0,0,0,.36-.08.52.52,0,0,0,.2-.3h0l0-.12c.08-.4.14-.81.21-1.21s.13-.9.18-1.35l.16-1.47-.57,1.36c-.18.42-.34.84-.5,1.27h0a6.78,6.78,0,0,0-.48-.78,3.44,3.44,0,0,0-.88-.87,2,2,0,0,0-.65-.31,1.74,1.74,0,0,0-.78-.06h0a3.19,3.19,0,0,0-.37-.48A1.27,1.27,0,0,0,8.33,13l.4.39a.68.68,0,0,1,.12.33,2.75,2.75,0,0,1,0,.47.53.53,0,0,1,0,.14v.07l0,0A3.31,3.31,0,0,0,8.1,14a2,2,0,0,0-.48-.12l-.23,0H7.18a.83.83,0,0,0-.24,0l-.37-3.07A6.88,6.88,0,0,1,10.09,4l2-1.14a6.63,6.63,0,0,1,6.6,0l2,1.14a6.9,6.9,0,0,1,3.52,6.76l-1,7.8A51.68,51.68,0,0,0,23.4,32.47Zm5.18-15.24-3-1.14.19-1.55,1.78.61a1.65,1.65,0,0,1,1.06,1.53Z" />
            <path class="cls-2"
                d="M18.82,7.78a3.26,3.26,0,0,0-.18-.46,2.88,2.88,0,0,0-.29-.54l-.06-.1-.13-.2L18,6.27l-.11-.12a3.64,3.64,0,0,0-.64-.58,4,4,0,0,0-.89-.49,3.2,3.2,0,0,0-1.12-.2,3.33,3.33,0,0,0-1.07.18,3.49,3.49,0,0,0-.92.47,3.53,3.53,0,0,0-.66.6,3.54,3.54,0,0,0-.47.63,3.86,3.86,0,0,0-.45,1,3,3,0,0,0-.09.44c0,.37.26.55.48.17a6,6,0,0,1,.81-1,4.26,4.26,0,0,1,1-.81,2.77,2.77,0,0,1,.65-.28,2.13,2.13,0,0,1,.72-.09,2,2,0,0,1,.69.1,3.36,3.36,0,0,1,.66.3,3.92,3.92,0,0,1,.56.38c.16.15.33.28.47.43a4.57,4.57,0,0,1,.31.34l0,.06a3.05,3.05,0,0,1,.26.31,2.41,2.41,0,0,1,.23.29c.25.41.54.16.46-.23A4.4,4.4,0,0,0,18.82,7.78Z" />
            <path class="cls-3"
                d="M11.07,33.05a3.07,3.07,0,0,0,.76,2.24,3.66,3.66,0,0,0,2.77,1.23h1.55a3.63,3.63,0,0,0,2.77-1.23,3,3,0,0,0,.76-2.24Z" />
        </g>
    </g>
</svg>