<svg width="30" height="30" viewBox="0 0 30 30" fill="none" xmlns="http://www.w3.org/2000/svg">
    <path
        d="M2.5025 15.0025C2.50396 21.1517 6.9755 26.3875 13.0488 27.3512V18.615H9.8775V15.0025H13.0525V12.2525C12.9106 10.9494 13.3557 9.65073 14.2671 8.70866C15.1785 7.76658 16.4617 7.27876 17.7688 7.37749C18.7069 7.39265 19.6427 7.4762 20.5688 7.6275V10.7012H18.9888C18.4448 10.63 17.8979 10.8096 17.5022 11.1896C17.1065 11.5695 16.9047 12.1086 16.9538 12.655V15.0025H20.4175L19.8638 18.6162H16.9538V27.3512C23.5219 26.3132 28.1276 20.3147 27.4344 13.7013C26.7412 7.08796 20.9916 2.17491 14.351 2.52147C7.71045 2.86803 2.50356 8.35288 2.5025 15.0025Z"
        fill="#7DB1AF" />
</svg>