<svg width="30" height="30" viewBox="0 0 30 30" fill="none" xmlns="http://www.w3.org/2000/svg">
    <path
        d="M14.945 12.945V17.2588H20.935C20.3775 20 18.0438 21.575 14.945 21.575C11.3357 21.5253 8.43584 18.5853 8.43584 14.9756C8.43584 11.366 11.3357 8.42593 14.945 8.37625C16.4453 8.37446 17.8994 8.8951 19.0575 9.84875L22.3075 6.59875C18.5795 3.32134 13.135 2.8998 8.94696 5.56431C4.7589 8.22882 2.83379 13.339 4.22282 18.1045C5.61185 22.87 9.9812 26.1455 14.945 26.1425C20.5288 26.1425 25.6063 22.0813 25.6063 14.975C25.5976 14.2908 25.5138 13.6096 25.3563 12.9438L14.945 12.945Z"
        fill="#7DB1AF" />
</svg>