<svg width="108" height="108" viewBox="0 0 108 108" fill="none" xmlns="http://www.w3.org/2000/svg">
<path d="M9.60123 23.3237C10.9015 23.3237 11.9556 22.2696 11.9556 20.9693C11.9556 19.669 10.9015 18.6149 9.60123 18.6149C8.30093 18.6149 7.24683 19.669 7.24683 20.9693C7.24683 22.2696 8.30093 23.3237 9.60123 23.3237Z" fill="#EE7C55"/>
<path d="M101.326 23.3237C102.626 23.3237 103.68 22.2696 103.68 20.9693C103.68 19.669 102.626 18.6149 101.326 18.6149C100.025 18.6149 98.9712 19.669 98.9712 20.9693C98.9712 22.2696 100.025 23.3237 101.326 23.3237Z" fill="#EE7C55"/>
<path d="M101.326 27.6026C96.8586 27.6026 95.9147 33.5037 94.9168 39.7548C93.9988 45.4853 92.9598 51.9804 89.56 52.6997C86.752 53.2937 85.4819 50.9155 83.5617 44.9906C82.2225 40.8607 80.8379 36.5882 77.0817 36.5882C67.6943 36.5882 66.7914 50.0925 66.2514 58.1601C66.2018 58.9161 66.1542 59.6268 66.1024 60.2769C64.4111 81.7733 55.1685 92.232 37.8453 92.232C31.2465 92.232 25.7493 89.8344 21.5243 85.104C6.92272 68.7744 11.044 30.1061 11.0894 29.7173C11.1321 29.2698 10.9972 28.8234 10.7138 28.4745C10.4303 28.1255 10.0211 27.902 9.57435 27.8521C9.12759 27.8022 8.67912 27.93 8.3257 28.2078C7.97228 28.4856 7.74224 28.8912 7.6852 29.3371C7.5016 30.9852 3.35008 69.9106 18.969 87.3742C23.8787 92.8627 30.2291 95.6469 37.8453 95.6469C57.0304 95.6469 67.6835 83.8361 69.5087 60.5448C69.5606 59.8817 69.6102 59.1581 69.6621 58.3848C70.12 51.5117 70.889 40.0075 77.0752 40.0075C78.3496 40.0075 79.4339 43.3533 80.3044 46.0425C81.8553 50.8248 83.9764 57.3804 90.2685 56.0455C95.9687 54.8402 97.2042 47.1096 98.2972 40.2905C98.8869 36.599 99.779 31.0219 101.321 31.0219C101.551 31.0301 101.78 30.9918 101.995 30.9095C102.21 30.8271 102.406 30.7024 102.572 30.5426C102.737 30.3828 102.869 30.1914 102.959 29.9796C103.049 29.7679 103.095 29.5402 103.095 29.3101C103.095 29.0801 103.049 28.8523 102.959 28.6406C102.869 28.4288 102.737 28.2374 102.572 28.0776C102.406 27.9178 102.21 27.7931 101.995 27.7107C101.78 27.6284 101.551 27.5901 101.321 27.5983L101.326 27.6026Z" fill="#1D2625"/>
<path d="M41.1913 40.7808C43.4528 32.1278 48.7513 26.622 58.3892 29.3134C51.3325 24.5095 43.1979 27.6394 39.7052 35.1043C37.0268 40.5799 36.3011 46.9217 36.3551 52.8574C36.412 57.1746 36.9115 61.4746 37.8455 65.6899C38.7743 57.3243 38.9557 48.816 41.1913 40.7808Z" fill="#1D2625"/>
<path d="M55.0001 44.712C54.4964 44.5127 53.9695 44.3777 53.4319 44.3103C48.3538 43.6623 44.0727 49.3042 43.8934 49.5439C43.6399 49.9082 43.5377 50.3566 43.6082 50.7947C43.6788 51.2328 43.9166 51.6264 44.2716 51.8927C44.6266 52.1589 45.0711 52.277 45.5114 52.2221C45.9517 52.1671 46.3536 51.9434 46.6323 51.5981C47.533 50.4058 50.4403 47.3818 53.0107 47.7101C53.4414 47.7693 53.8553 47.9164 54.2268 48.1421C54.4152 48.3447 54.6421 48.5077 54.8943 48.6216C56.106 49.6692 57.0326 51.4167 57.6634 52.9416C57.7499 53.1493 57.8765 53.3378 58.0358 53.4965C58.1952 53.6553 58.3843 53.781 58.5923 53.8667C58.8003 53.9523 59.0231 53.9962 59.2481 53.9957C59.473 53.9952 59.6957 53.9504 59.9033 53.8639C60.1109 53.7774 60.2995 53.6509 60.4582 53.4915C60.6169 53.3321 60.7427 53.143 60.8284 52.935C60.914 52.727 60.9578 52.5042 60.9574 52.2792C60.9569 52.0543 60.9121 51.8317 60.8256 51.624C60.6658 51.2417 60.5016 50.8788 60.3331 50.5246C61.8192 49.6908 64.0937 48.2091 63.6617 46.7899C63.5537 47.2479 63.1627 47.3991 62.7977 47.5071C61.6507 47.7749 60.3288 47.6583 59.1862 47.4574C58.9508 47.4046 58.7066 47.4046 58.4712 47.4574C58.4086 47.3775 58.3438 47.3062 58.2811 47.2284C59.9011 45.4594 60.6744 42.8717 59.8623 40.6015C59.5469 42.498 58.0587 44.2023 56.2075 44.6213C55.8057 44.5222 55.3827 44.554 55.0001 44.712Z" fill="#1D2625"/>
<path d="M46.0987 81.5011C48.1939 79.5722 49.7512 77.1919 51.0062 74.6971C51.0094 74.6265 50.9986 74.5559 50.9745 74.4894C50.9504 74.4229 50.9134 74.3619 50.8656 74.3097C50.8179 74.2575 50.7603 74.2153 50.6962 74.1854C50.6321 74.1555 50.5628 74.1386 50.4921 74.1355C48.4684 74.038 46.4585 73.7487 44.4895 73.2715C38.9231 71.725 32.5382 71.8826 27.0107 72.3125C27.6933 75.5374 29.4494 78.9631 31.8686 81.3154C35.8559 85.536 41.932 85.2574 46.0987 81.5011ZM29.2874 74.4876C28.594 73.6711 28.0951 73.4832 27.2959 72.509C30.646 73.211 36.2123 74.5049 39.4545 74.9434C42.7744 75.3278 46.0598 74.6755 49.4143 75.101C48.0038 76.7858 46.1635 78.1445 44.3944 79.1942C40.258 82.0022 35.9877 80.8661 32.5749 77.7708C31.4216 76.7355 30.3242 75.6396 29.2874 74.4876Z" fill="#1D2625"/>
</svg>
