<svg width="235" height="115" viewBox="0 0 235 115" fill="none" xmlns="http://www.w3.org/2000/svg">
    <path
        d="M46.228 115C34.8714 115 25.3853 110.869 18.1705 102.74C-5.2107 76.7555 1.06883 18.9224 1.33604 16.5238C1.46965 15.1912 2.80572 14.1252 4.14179 14.2584C5.47786 14.3917 6.54672 15.7242 6.41311 17.0568C6.41311 17.5898 0.267186 75.0232 21.9115 99.2758C28.1911 106.338 36.3411 109.803 46.228 109.803C72.0142 109.803 85.7757 94.3453 88.3142 62.3638C88.4478 61.4311 88.4479 60.365 88.5815 59.1657C89.3831 47.1727 90.7192 27.1842 104.748 27.1842C110.359 27.1842 112.364 33.5805 114.368 39.7103C117.173 48.5052 119.044 51.9699 123.319 51.1703C128.396 50.1043 129.866 40.5099 131.336 31.9815C132.805 22.6535 134.275 13.9919 140.822 13.9919C142.292 13.9919 143.36 15.1912 143.36 16.5238C143.36 17.9896 142.158 19.0556 140.822 19.0556C138.551 19.0556 137.214 27.3175 136.279 32.781C134.676 42.9085 132.805 54.3685 124.388 56.2341C115.036 58.2329 111.829 48.5052 109.558 41.4426C108.222 37.445 106.618 32.5145 104.748 32.5145C95.529 32.5145 94.4602 49.5713 93.6585 59.832C93.5249 61.0313 93.5249 62.0973 93.3913 63.0301C90.5856 97.4102 74.6863 115 46.228 115Z"
        fill="#FFFFFF" />
    <path
        d="M4.14181 7.5956C6.06033 7.5956 7.6156 6.04442 7.6156 4.13094C7.6156 2.21746 6.06033 0.666283 4.14181 0.666283C2.22329 0.666283 0.66803 2.21746 0.66803 4.13094C0.66803 6.04442 2.22329 7.5956 4.14181 7.5956Z"
        fill="#FFFFFF" />
    <path
        d="M4.14182 8.26188C1.8705 8.26188 0 6.39629 0 4.13094C0 1.86558 1.8705 0 4.14182 0C6.41314 0 8.28364 1.86558 8.28364 4.13094C8.28364 6.39629 6.41314 8.26188 4.14182 8.26188ZM4.14182 1.1993C2.53853 1.1993 1.33607 2.53187 1.33607 3.99768C1.33607 5.59676 2.67214 6.79606 4.14182 6.79606C5.7451 6.79606 6.94757 5.4635 6.94757 3.99768C6.94757 2.53187 5.7451 1.1993 4.14182 1.1993Z"
        fill="#FFFFFF" />
    <path
        d="M140.688 7.5956C142.607 7.5956 144.162 6.04442 144.162 4.13094C144.162 2.21746 142.607 0.666283 140.688 0.666283C138.77 0.666283 137.214 2.21746 137.214 4.13094C137.214 6.04442 138.77 7.5956 140.688 7.5956Z"
        fill="#FFFFFF" />
    <path
        d="M140.688 8.26188C138.417 8.26188 136.546 6.39629 136.546 4.13094C136.546 1.86558 138.417 0 140.688 0C142.96 0 144.83 1.86558 144.83 4.13094C144.83 6.39629 142.96 8.26188 140.688 8.26188ZM140.688 1.1993C139.085 1.1993 137.882 2.53187 137.882 3.99768C137.882 5.59676 139.219 6.79606 140.688 6.79606C142.291 6.79606 143.494 5.4635 143.494 3.99768C143.494 2.53187 142.291 1.1993 140.688 1.1993Z"
        fill="#FFFFFF" />
    <path
        d="M76.8241 16.5238C76.8241 16.5238 75.6216 16.124 73.6175 15.8575C72.5486 15.7242 71.3462 15.591 70.0101 15.591C68.674 15.591 67.0707 15.7242 65.4675 16.124C63.8642 16.5238 62.2609 17.19 60.7912 18.1228C59.3215 19.0556 57.8519 20.3882 56.6494 21.9873C55.4469 23.5863 54.3781 25.4519 53.4428 27.3175C52.6412 29.3163 51.8395 31.4484 51.1715 33.5805C50.9043 34.6466 50.5035 35.7126 50.3699 36.9119C50.1027 37.978 49.8354 39.1773 49.7018 40.2433C49.5682 41.3094 49.301 42.5087 49.1674 43.5748C49.0338 44.6408 48.9002 45.8401 48.633 46.9062C48.3658 49.0382 48.0985 51.1703 47.8313 53.1692C47.6977 55.168 47.4305 57.0336 47.2969 58.8992C47.1633 60.6315 47.0297 62.2306 46.8961 63.6964C46.7625 65.1622 46.6289 66.3615 46.6289 67.4276C46.4953 69.5597 46.228 70.759 46.228 70.759C46.228 70.759 45.9608 69.5597 45.56 67.5608C45.2928 66.2283 45.1592 64.8957 44.892 63.4299C44.7584 61.9641 44.4912 60.365 44.3575 58.4994C44.2239 56.7671 44.0903 54.7683 43.9567 52.6362C43.9567 50.5041 43.9567 48.372 44.0903 46.1066C44.2239 44.9073 44.2239 43.8413 44.3575 42.642C44.4912 41.4427 44.6248 40.2433 44.7584 39.044C44.892 37.8447 45.1592 36.6454 45.4264 35.4461C45.6936 34.2468 45.9608 33.0475 46.3617 31.8482C47.0297 29.4496 47.9649 27.051 49.0338 24.9189C50.2363 22.6535 51.5723 20.5214 53.1756 18.7891C54.9125 16.9235 56.783 15.4577 58.9207 14.5249C61.0584 13.5921 63.1961 13.0591 65.0666 12.9259C68.9412 12.6593 72.0142 13.7254 73.8847 14.6582C74.82 15.0579 75.6216 15.591 76.0224 15.8575C76.5569 16.2573 76.8241 16.5238 76.8241 16.5238Z"
        fill="#FFFFFF" />
    <path
        d="M61.5929 79.8204C61.5929 79.8204 61.5929 79.9536 61.5929 80.3534C61.5929 80.6199 61.5929 81.1529 61.4593 81.686C61.3257 82.752 60.7913 84.3511 59.9896 86.0834C59.0544 87.8157 57.7183 89.6813 55.447 91.2804C54.3781 92.0799 53.1757 92.8795 51.706 93.2792C50.2363 93.8123 48.633 94.0788 47.0297 94.0788C45.4264 94.0788 43.8232 93.679 42.3535 93.2792C40.8838 92.7462 39.6813 92.0799 38.6125 91.1471C37.5436 90.3476 36.742 89.4148 35.9403 88.6153C35.2723 87.6825 34.6043 86.883 34.2034 85.9502C33.669 85.1506 33.4018 84.2178 33.1346 83.5516C32.8674 82.8853 32.7338 82.219 32.6002 81.5527C32.4666 81.0197 32.4666 80.4867 32.3329 80.2201C32.3329 79.9536 32.3329 79.6871 32.3329 79.6871V79.5539C32.3329 79.4206 32.4666 79.2874 32.6002 79.2874C32.7338 79.2874 32.7338 79.2874 32.7338 79.4206C32.7338 79.4206 33.1346 79.8204 33.669 80.6199C33.9362 81.0197 34.3371 81.4195 34.8715 81.9525C35.2723 82.4855 35.8067 83.0185 36.4748 83.6848C37.0092 84.3511 37.6772 84.8841 38.4789 85.5504C39.2805 86.0834 40.0822 86.7497 40.8838 87.2827C41.8191 87.8157 42.7543 88.2155 43.8232 88.6153C44.892 88.8818 45.9609 89.1483 47.0297 89.1483C48.0986 89.1483 49.1674 89.0151 50.2363 88.7485C51.3052 88.482 52.2404 88.0823 53.1757 87.5492C55.0462 86.4832 56.5158 85.2839 57.5847 84.0846C58.7871 82.8853 59.5888 81.8192 60.2568 81.0197C60.7913 80.2201 61.1921 79.8204 61.1921 79.8204C61.1921 79.6871 61.4593 79.6871 61.4593 79.6871L61.5929 79.8204Z"
        fill="#FFFFFF" />
    <path
        d="M78.8282 41.0429C78.6946 42.5087 78.4274 43.9745 78.0266 45.4403C77.6257 46.9061 77.0913 48.372 76.4233 49.7045C75.7552 51.0371 74.9536 52.5029 73.7511 53.7022C73.2167 54.3685 72.4151 54.9015 71.6134 55.4345C70.8118 55.9676 69.7429 56.3673 68.8077 56.5006C67.7388 56.6338 66.67 56.6338 65.6011 56.2341C64.6659 55.9676 63.7306 55.5678 62.929 55.0348C61.4593 53.9687 60.2568 52.7694 59.3216 51.4369C58.3863 50.1043 57.5847 48.7717 57.0503 47.3059C56.783 46.6396 56.5158 45.8401 56.2486 45.1738C55.9814 44.5075 55.8478 43.708 55.5806 42.9085L58.5199 42.7752C57.8519 44.5075 57.1839 46.2399 56.5158 48.1054C56.115 49.0382 55.7142 49.8378 55.447 50.7706C55.0461 51.7034 54.6453 52.5029 54.2445 53.4357C54.2445 52.5029 54.3781 51.5701 54.5117 50.6373C54.6453 49.7045 54.6453 48.7717 54.7789 47.8389C55.0461 45.9733 55.3134 44.1078 55.5806 42.2422C55.7142 41.4426 56.5158 40.9096 57.3175 41.0429C57.7183 41.1761 58.1191 41.3094 58.3863 41.7091L58.6535 42.1089L59.7224 43.8413C60.1232 44.3743 60.524 45.0406 60.9249 45.5736C61.7265 46.6396 62.5281 47.7057 63.3298 48.7717C64.1314 49.7045 65.0667 50.6373 66.0019 51.1703C66.9372 51.7034 67.6052 51.9699 68.4069 51.9699C69.0749 51.9699 70.0101 51.5701 70.9454 50.9038C71.8806 50.2375 72.8159 49.3048 73.7511 48.2387C74.6864 47.1727 75.488 46.1066 76.4233 45.0406C77.0913 43.3082 77.893 42.2422 78.8282 41.0429Z"
        fill="#FFFFFF" />
    <path
        d="M76.6905 49.7045C76.6905 49.8378 76.6905 49.8378 76.6905 49.971C76.6905 50.1043 76.8241 50.5041 76.9577 50.7706C77.2249 51.4369 77.7594 52.3696 78.4274 53.1692C78.8282 53.5689 79.229 53.9687 79.6299 54.2352C79.8971 54.3685 80.0307 54.5017 80.2979 54.635C80.5651 54.7683 80.6987 54.9015 80.9659 54.9015C81.3667 55.0348 81.7676 55.168 82.0348 55.3013C82.302 55.4345 82.4356 55.4345 82.4356 55.4345C82.4356 55.4345 82.302 55.4345 82.0348 55.5678C81.7676 55.701 81.3667 55.701 80.9659 55.8343C80.6987 55.8343 80.4315 55.8343 80.1643 55.8343C79.8971 55.8343 79.6299 55.8343 79.229 55.8343C78.561 55.8343 77.893 55.701 77.2249 55.4345C75.8889 55.0348 74.5528 54.2352 73.7512 53.5689C73.3503 53.3024 72.9495 52.9027 72.6823 52.6362C72.5487 52.5029 72.4151 52.3696 72.4151 52.3696C72.2815 52.2364 72.2815 52.2364 72.2815 52.2364C71.6134 51.0371 72.0143 49.438 73.2167 48.7717C74.4192 47.9722 75.8889 48.5052 76.6905 49.7045Z"
        fill="#FFFFFF" />
    <path
        d="M73.4839 54.102C73.4839 54.102 73.4839 54.2352 73.4839 54.3685C73.4839 54.5017 73.3503 54.7683 73.3503 55.0348C73.2167 55.5678 73.2167 56.3673 73.2167 57.1669C73.2167 57.9664 73.3503 58.6327 73.7511 59.0324C73.8847 59.1657 73.8847 59.299 74.0183 59.299C74.1519 59.4322 74.1519 59.4322 74.2855 59.4322C74.4191 59.5655 74.5528 59.5655 74.5528 59.5655C74.5528 59.5655 74.4191 59.5655 74.2855 59.6987C74.1519 59.832 73.7511 59.832 73.3503 59.6987C72.5487 59.5655 71.747 58.8992 70.9454 58.2329C70.2773 57.5666 69.6093 56.7671 69.2085 56.2341C68.9413 55.9676 68.8077 55.701 68.6741 55.4345C68.5405 55.168 68.5405 55.168 68.5405 55.168C68.2732 53.8355 69.0749 52.5029 70.4109 52.1031C71.8806 51.8366 73.2167 52.6362 73.4839 54.102Z"
        fill="#FFFFFF" />
</svg>