<svg width="158" height="80" viewBox="0 0 158 43" fill="none" xmlns="http://www.w3.org/2000/svg">
    <path
        d="M17.2672 43C13.0253 43 9.48201 41.4554 6.78712 38.416C-1.9463 28.6999 0.399251 7.07532 0.499061 6.17845C0.548966 5.68019 1.04802 5.28158 1.54707 5.3314C2.04612 5.38123 2.44537 5.87949 2.39546 6.37775C2.39546 6.57706 0.0998187 28.0521 8.18447 37.1205C10.53 39.7613 13.5742 41.0568 17.2672 41.0568C26.8989 41.0568 32.0392 35.2769 32.9874 23.3187C33.0373 22.9699 33.0373 22.5713 33.0872 22.1228C33.3866 17.6385 33.8857 10.1645 39.1257 10.1645C41.2217 10.1645 41.9703 12.5562 42.7189 14.8482C43.7669 18.1367 44.4656 19.4322 46.0625 19.1333C47.959 18.7346 48.5079 15.1472 49.0569 11.9583C49.6058 8.47045 50.1548 5.23175 52.6001 5.23175C53.1491 5.23175 53.5483 5.68019 53.5483 6.17845C53.5483 6.72654 53.0992 7.12515 52.6001 7.12515C51.7517 7.12515 51.2527 10.2144 50.9034 12.2572C50.3045 16.044 49.6058 20.3291 46.4618 21.0267C42.9684 21.774 41.7707 18.1367 40.9223 15.4959C40.4233 14.0012 39.8244 12.1576 39.1257 12.1576C35.6823 12.1576 35.283 18.5353 34.9836 22.372C34.9337 22.8204 34.9337 23.219 34.8838 23.5678C33.8358 36.4229 27.897 43 17.2672 43Z"
        fill="#EE725A" />
    <path
        d="M1.54705 2.84009C2.26366 2.84009 2.84458 2.26008 2.84458 1.54461C2.84458 0.829136 2.26366 0.24913 1.54705 0.24913C0.830438 0.24913 0.249512 0.829136 0.249512 1.54461C0.249512 2.26008 0.830438 2.84009 1.54705 2.84009Z"
        fill="#7DB1AF" />
    <path
        d="M1.54706 3.08922C0.698673 3.08922 0 2.39166 0 1.54461C0 0.697566 0.698673 0 1.54706 0C2.39545 0 3.09413 0.697566 3.09413 1.54461C3.09413 2.39166 2.39545 3.08922 1.54706 3.08922ZM1.54706 0.448436C0.948199 0.448436 0.499052 0.946698 0.499052 1.49479C0.499052 2.0927 0.998105 2.54114 1.54706 2.54114C2.14593 2.54114 2.59507 2.04287 2.59507 1.49479C2.59507 0.946698 2.14593 0.448436 1.54706 0.448436Z"
        fill="#7DB1AF" />
    <path
        d="M52.5502 2.84009C53.2668 2.84009 53.8477 2.26008 53.8477 1.54461C53.8477 0.829136 53.2668 0.24913 52.5502 0.24913C51.8336 0.24913 51.2527 0.829136 51.2527 1.54461C51.2527 2.26008 51.8336 2.84009 52.5502 2.84009Z"
        fill="#7DB1AF" />
    <path
        d="M52.5502 3.08922C51.7018 3.08922 51.0031 2.39166 51.0031 1.54461C51.0031 0.697566 51.7018 0 52.5502 0C53.3986 0 54.0973 0.697566 54.0973 1.54461C54.0973 2.39166 53.3986 3.08922 52.5502 3.08922ZM52.5502 0.448436C51.9513 0.448436 51.5022 0.946698 51.5022 1.49479C51.5022 2.0927 52.0012 2.54114 52.5502 2.54114C53.1491 2.54114 53.5982 2.04287 53.5982 1.49479C53.5982 0.946698 53.1491 0.448436 52.5502 0.448436Z"
        fill="#7DB1AF" />
    <path
        d="M28.6955 6.17845C28.6955 6.17845 28.2464 6.02897 27.4978 5.92932C27.0985 5.87949 26.6494 5.82967 26.1503 5.82967C25.6513 5.82967 25.0524 5.87949 24.4536 6.02897C23.8547 6.17845 23.2558 6.42758 22.7069 6.77636C22.1579 7.12515 21.609 7.62341 21.1598 8.22132C20.7107 8.81924 20.3114 9.5168 19.9621 10.2144C19.6627 10.9618 19.3632 11.759 19.1137 12.5562C19.0139 12.9548 18.8642 13.3534 18.8143 13.8019C18.7145 14.2005 18.6147 14.6489 18.5647 15.0475C18.5148 15.4461 18.415 15.8946 18.3651 16.2932C18.3152 16.6918 18.2653 17.1402 18.1655 17.5388C18.0657 18.336 17.9659 19.1333 17.8661 19.8807C17.8162 20.628 17.7164 21.3256 17.6665 22.0232C17.6165 22.6709 17.5666 23.2688 17.5167 23.8169C17.4668 24.365 17.4169 24.8134 17.4169 25.2121C17.367 26.0093 17.2672 26.4577 17.2672 26.4577C17.2672 26.4577 17.1674 26.0093 17.0177 25.2619C16.9179 24.7636 16.868 24.2654 16.7682 23.7173C16.7183 23.1692 16.6184 22.5713 16.5685 21.8737C16.5186 21.226 16.4687 20.4786 16.4188 19.6813C16.4188 18.8841 16.4188 18.0869 16.4687 17.2399C16.5186 16.7914 16.5186 16.3928 16.5685 15.9444C16.6184 15.4959 16.6683 15.0475 16.7183 14.5991C16.7682 14.1506 16.868 13.7022 16.9678 13.2538C17.0676 12.8053 17.1674 12.3569 17.3171 11.9085C17.5666 11.0116 17.916 10.1147 18.3152 9.3175C18.7644 8.47045 19.2634 7.67324 19.8623 7.0255C20.5111 6.32793 21.2097 5.77984 22.0082 5.43106C22.8067 5.08227 23.6052 4.88297 24.3039 4.83314C25.7511 4.73349 26.8989 5.1321 27.5976 5.48088C27.9469 5.63036 28.2464 5.82967 28.3961 5.92932C28.5957 6.0788 28.6955 6.17845 28.6955 6.17845Z"
        fill="#EE725A" />
    <path
        d="M23.0063 29.8459C23.0063 29.8459 23.0063 29.8957 23.0063 30.0452C23.0063 30.1448 23.0063 30.3441 22.9564 30.5434C22.9065 30.9421 22.7069 31.54 22.4075 32.1877C22.0581 32.8355 21.5591 33.533 20.7107 34.1309C20.3115 34.4299 19.8623 34.7288 19.3133 34.8783C18.7644 35.0776 18.1655 35.1773 17.5667 35.1773C16.9678 35.1773 16.3689 35.0278 15.82 34.8783C15.271 34.679 14.8219 34.4299 14.4226 34.0811C14.0234 33.7821 13.724 33.4334 13.4245 33.1344C13.175 32.7856 12.9255 32.4867 12.7758 32.1379C12.5761 31.8389 12.4763 31.4901 12.3765 31.241C12.2767 30.9919 12.2268 30.7428 12.1769 30.4936C12.127 30.2943 12.127 30.095 12.0771 29.9954C12.0771 29.8957 12.0771 29.7961 12.0771 29.7961V29.7462C12.0771 29.6964 12.127 29.6466 12.1769 29.6466C12.2268 29.6466 12.2268 29.6466 12.2268 29.6964C12.2268 29.6964 12.3765 29.8459 12.5761 30.1448C12.676 30.2943 12.8257 30.4438 13.0253 30.6431C13.175 30.8424 13.3746 31.0417 13.6242 31.2908C13.8238 31.54 14.0733 31.7393 14.3727 31.9884C14.6722 32.1877 14.9716 32.4368 15.271 32.6361C15.6204 32.8355 15.9697 32.9849 16.3689 33.1344C16.7682 33.2341 17.1674 33.3337 17.5667 33.3337C17.9659 33.3337 18.3651 33.2839 18.7644 33.1842C19.1636 33.0846 19.513 32.9351 19.8623 32.7358C20.561 32.3372 21.1099 31.8888 21.5092 31.4403C21.9583 30.9919 22.2578 30.5933 22.5073 30.2943C22.7069 29.9954 22.8566 29.8459 22.8566 29.8459C22.8566 29.7961 22.9564 29.7961 22.9564 29.7961L23.0063 29.8459Z"
        fill="#EE725A" />
    <path
        d="M29.4441 15.3465C29.3942 15.8946 29.2944 16.4426 29.1447 16.9907C28.995 17.5388 28.7953 18.0869 28.5458 18.5852C28.2963 19.0834 27.9968 19.6315 27.5477 20.08C27.3481 20.3291 27.0486 20.5284 26.7492 20.7277C26.4498 20.927 26.0505 21.0765 25.7012 21.1263C25.302 21.1761 24.9027 21.1761 24.5035 21.0267C24.1541 20.927 23.8048 20.7775 23.5054 20.5782C22.9564 20.1796 22.5073 19.7312 22.1579 19.2329C21.8086 18.7347 21.5092 18.2364 21.3095 17.6883C21.2097 17.4392 21.1099 17.1402 21.0101 16.8911C20.9103 16.6419 20.8604 16.343 20.7606 16.044L21.8585 15.9942C21.609 16.642 21.3595 17.2897 21.1099 17.9873C20.9602 18.336 20.8105 18.635 20.7107 18.9838C20.561 19.3326 20.4113 19.6315 20.2615 19.9803C20.2615 19.6315 20.3114 19.2827 20.3613 18.934C20.4113 18.5852 20.4113 18.2364 20.4612 17.8876C20.561 17.19 20.6608 16.4925 20.7606 15.7949C20.8105 15.4959 21.1099 15.2966 21.4094 15.3465C21.5591 15.3963 21.7088 15.4461 21.8086 15.5956L21.9084 15.7451L22.3076 16.3928C22.4574 16.5921 22.6071 16.8413 22.7568 17.0406C23.0562 17.4392 23.3557 17.8378 23.6551 18.2364C23.9545 18.5852 24.3039 18.934 24.6532 19.1333C25.0025 19.3326 25.2521 19.4322 25.5515 19.4322C25.801 19.4322 26.1504 19.2827 26.4997 19.0336C26.849 18.7845 27.1984 18.4357 27.5477 18.0371C27.897 17.6385 28.1965 17.2399 28.5458 16.8413C28.7953 16.1935 29.0948 15.7949 29.4441 15.3465Z"
        fill="#EE725A" />
    <path
        d="M28.6456 18.5852C28.6456 18.635 28.6456 18.635 28.6456 18.6848C28.6456 18.7347 28.6955 18.8841 28.7454 18.9838C28.8452 19.2329 29.0449 19.5817 29.2944 19.8807C29.4441 20.0301 29.5938 20.1796 29.7435 20.2793C29.8433 20.3291 29.8932 20.3789 29.9931 20.4287C30.0929 20.4786 30.1428 20.5284 30.2426 20.5284C30.3923 20.5782 30.542 20.628 30.6418 20.6779C30.7416 20.7277 30.7915 20.7277 30.7915 20.7277C30.7915 20.7277 30.7416 20.7277 30.6418 20.7775C30.542 20.8274 30.3923 20.8274 30.2426 20.8772C30.1428 20.8772 30.043 20.8772 29.9432 20.8772C29.8433 20.8772 29.7435 20.8772 29.5938 20.8772C29.3443 20.8772 29.0948 20.8274 28.8452 20.7277C28.3462 20.5782 27.8471 20.2793 27.5477 20.0301C27.398 19.9305 27.2483 19.781 27.1485 19.6813C27.0986 19.6315 27.0486 19.5817 27.0486 19.5817C26.9987 19.5319 26.9987 19.5319 26.9987 19.5319C26.7492 19.0834 26.8989 18.4855 27.3481 18.2364C27.7972 17.9374 28.3462 18.1367 28.6456 18.5852Z"
        fill="#EE725A" />
    <path
        d="M27.4479 20.2294C27.4479 20.2294 27.4479 20.2793 27.4479 20.3291C27.4479 20.3789 27.398 20.4786 27.398 20.5782C27.3481 20.7775 27.3481 21.0765 27.3481 21.3754C27.3481 21.6744 27.398 21.9235 27.5477 22.073C27.5976 22.1228 27.5976 22.1727 27.6475 22.1727C27.6974 22.2225 27.6974 22.2225 27.7473 22.2225C27.7972 22.2723 27.8471 22.2723 27.8471 22.2723C27.8471 22.2723 27.7972 22.2723 27.7473 22.3221C27.6974 22.372 27.5477 22.372 27.398 22.3221C27.0986 22.2723 26.7991 22.0232 26.4997 21.774C26.2502 21.5249 26.0006 21.226 25.8509 21.0267C25.7511 20.927 25.7012 20.8274 25.6513 20.7277C25.6014 20.628 25.6014 20.628 25.6014 20.628C25.5016 20.1298 25.801 19.6315 26.3001 19.482C26.849 19.3824 27.3481 19.6814 27.4479 20.2294Z"
        fill="#EE725A" />
    <path d="M44.0164 28.7497H40.573V26.4079H50.1049V28.7497H46.6614V38.4658H44.0164V28.7497Z" fill="#EE725A" />
    <path
        d="M59.0379 26.0591C62.8307 26.0591 65.5755 28.5504 65.5755 32.387C65.5755 36.2735 62.8307 38.715 59.0379 38.715C55.2451 38.715 52.5003 36.2236 52.5003 32.387C52.5502 28.5504 55.295 26.0591 59.0379 26.0591ZM59.0379 36.2735C61.2837 36.2735 62.7808 34.6292 62.7808 32.387C62.7808 30.1448 61.2837 28.5006 59.0379 28.5006C56.7922 28.5006 55.295 30.1448 55.295 32.387C55.295 34.679 56.7922 36.2735 59.0379 36.2735Z"
        fill="#EE725A" />
    <path
        d="M79.2495 33.7822C79.2495 36.6223 77.5029 38.7648 74.1592 38.7648C70.8156 38.7648 69.0689 36.6721 69.0689 33.7822V26.3581H71.7139V33.6825C71.7139 35.1773 72.7619 36.2735 74.1592 36.2735C75.5566 36.2735 76.6046 35.1275 76.6046 33.6825V26.3581H79.2495V33.7822Z"
        fill="#EE725A" />
    <path d="M83.5414 26.3581H86.1864V35.9745H91.127V38.416H83.5414V26.3581Z" fill="#EE725A" />
    <path
        d="M100.16 26.0591C103.953 26.0591 106.697 28.5504 106.697 32.387C106.697 36.2735 103.953 38.715 100.16 38.715C96.367 38.715 93.6222 36.2236 93.6222 32.387C93.6721 28.5504 96.4169 26.0591 100.16 26.0591ZM100.16 36.2735C102.406 36.2735 103.903 34.6292 103.903 32.387C103.903 30.1448 102.406 28.5006 100.16 28.5006C97.914 28.5006 96.4169 30.1448 96.4169 32.387C96.4169 34.679 97.914 36.2735 100.16 36.2735Z"
        fill="#EE725A" />
    <path
        d="M120.371 33.7822C120.371 36.6223 118.625 38.7648 115.281 38.7648C111.937 38.7648 110.191 36.6721 110.191 33.7822V26.3581H112.836V33.6825C112.836 35.1773 113.884 36.2735 115.281 36.2735C116.678 36.2735 117.726 35.1275 117.726 33.6825V26.3581H120.371V33.7822Z"
        fill="#EE725A" />
    <path
        d="M123.715 37.5689L130.802 27.4044H123.815V26.3581H132.249V27.2549L125.112 37.3696H132.399V38.416H123.715V37.5689Z"
        fill="#7DB1AF" />
    <path
        d="M136.191 26.3581H143.577V27.4044H137.339V31.6895H143.178V32.7358H137.289V37.4195H143.827V38.4658H136.191V26.3581Z"
        fill="#7DB1AF" />
    <path
        d="M148.019 26.3581H149.466L156.802 36.9212H156.852V26.3581H158V38.416H156.553L149.167 27.8528H149.117V38.416H147.969V26.3581H148.019Z"
        fill="#7DB1AF" />
</svg>