<svg id="Layer_1" data-name="Layer 1" xmlns="http://www.w3.org/2000/svg" viewBox="0 0 50 50">
    <defs>
        <style>
            .cls-1 {
                isolation: isolate;
                opacity: 0.4;
            }

            .cls-2 {
                fill: #AEBFBD;
            }
        </style>
    </defs>
    <g class="cls-1">
        <path class="cls-2"
            d="M25,33.33a8.33,8.33,0,0,1-5.89-14.22A8.25,8.25,0,0,1,25,16.67h0A8.34,8.34,0,0,1,33.33,25h0A8.34,8.34,0,0,1,25,33.33Zm0-13.47A5.14,5.14,0,1,0,30.14,25,5.11,5.11,0,0,0,25,19.86Z" />
    </g>
    <path class="cls-2"
        d="M25,42.15h0C16.18,42.15,8.27,36,3.83,25.63a1.54,1.54,0,0,1,0-1.26C8.27,14,16.18,7.85,25,7.85h0c8.81,0,16.72,6.18,21.16,16.52a1.54,1.54,0,0,1,0,1.26C41.73,36,33.82,42.15,25,42.15ZM7,25c4,8.75,10.64,14,18,14s14-5.21,18-14c-4-8.75-10.64-14-18-14S11,16.25,7,25Z" />
</svg>