<svg width="38" height="45" viewBox="0 0 38 45" fill="none" xmlns="http://www.w3.org/2000/svg">
    <g filter="url(#filter0_d_231_1587)">
        <circle cx="19" cy="16" r="15" fill="url(#paint0_linear_231_1587)" />
    </g>
    <path
        d="M9.94239 44.084C9.32639 44.084 8.77439 43.984 8.28639 43.784C7.79839 43.584 7.40639 43.288 7.11039 42.896C6.82239 42.504 6.67039 42.032 6.65439 41.48H8.83839C8.87039 41.792 8.97839 42.032 9.16239 42.2C9.34639 42.36 9.58639 42.44 9.88239 42.44C10.1864 42.44 10.4264 42.372 10.6024 42.236C10.7784 42.092 10.8664 41.896 10.8664 41.648C10.8664 41.44 10.7944 41.268 10.6504 41.132C10.5144 40.996 10.3424 40.884 10.1344 40.796C9.93439 40.708 9.64639 40.608 9.27039 40.496C8.72639 40.328 8.28239 40.16 7.93839 39.992C7.59439 39.824 7.29839 39.576 7.05039 39.248C6.80239 38.92 6.67839 38.492 6.67839 37.964C6.67839 37.18 6.96239 36.568 7.53039 36.128C8.09839 35.68 8.83839 35.456 9.75039 35.456C10.6784 35.456 11.4264 35.68 11.9944 36.128C12.5624 36.568 12.8664 37.184 12.9064 37.976H10.6864C10.6704 37.704 10.5704 37.492 10.3864 37.34C10.2024 37.18 9.96639 37.1 9.67839 37.1C9.43039 37.1 9.23039 37.168 9.07839 37.304C8.92639 37.432 8.85039 37.62 8.85039 37.868C8.85039 38.14 8.97839 38.352 9.23439 38.504C9.49039 38.656 9.89039 38.82 10.4344 38.996C10.9784 39.18 11.4184 39.356 11.7544 39.524C12.0984 39.692 12.3944 39.936 12.6424 40.256C12.8904 40.576 13.0144 40.988 13.0144 41.492C13.0144 41.972 12.8904 42.408 12.6424 42.8C12.4024 43.192 12.0504 43.504 11.5864 43.736C11.1224 43.968 10.5744 44.084 9.94239 44.084ZM19.0112 44.084C18.2192 44.084 17.4912 43.9 16.8272 43.532C16.1712 43.164 15.6472 42.652 15.2552 41.996C14.8712 41.332 14.6792 40.588 14.6792 39.764C14.6792 38.94 14.8712 38.2 15.2552 37.544C15.6472 36.888 16.1712 36.376 16.8272 36.008C17.4912 35.64 18.2192 35.456 19.0112 35.456C19.8032 35.456 20.5272 35.64 21.1832 36.008C21.8472 36.376 22.3672 36.888 22.7432 37.544C23.1272 38.2 23.3192 38.94 23.3192 39.764C23.3192 40.588 23.1272 41.332 22.7432 41.996C22.3592 42.652 21.8392 43.164 21.1832 43.532C20.5272 43.9 19.8032 44.084 19.0112 44.084ZM19.0112 42.212C19.6832 42.212 20.2192 41.988 20.6192 41.54C21.0272 41.092 21.2312 40.5 21.2312 39.764C21.2312 39.02 21.0272 38.428 20.6192 37.988C20.2192 37.54 19.6832 37.316 19.0112 37.316C18.3312 37.316 17.7872 37.536 17.3792 37.976C16.9792 38.416 16.7792 39.012 16.7792 39.764C16.7792 40.508 16.9792 41.104 17.3792 41.552C17.7872 41.992 18.3312 42.212 19.0112 42.212ZM28.2588 44.084C27.6428 44.084 27.0908 43.984 26.6028 43.784C26.1148 43.584 25.7228 43.288 25.4268 42.896C25.1388 42.504 24.9868 42.032 24.9708 41.48H27.1548C27.1868 41.792 27.2948 42.032 27.4788 42.2C27.6628 42.36 27.9028 42.44 28.1988 42.44C28.5028 42.44 28.7428 42.372 28.9188 42.236C29.0948 42.092 29.1828 41.896 29.1828 41.648C29.1828 41.44 29.1108 41.268 28.9668 41.132C28.8308 40.996 28.6588 40.884 28.4508 40.796C28.2508 40.708 27.9628 40.608 27.5868 40.496C27.0428 40.328 26.5988 40.16 26.2548 39.992C25.9108 39.824 25.6148 39.576 25.3668 39.248C25.1188 38.92 24.9948 38.492 24.9948 37.964C24.9948 37.18 25.2788 36.568 25.8468 36.128C26.4148 35.68 27.1548 35.456 28.0668 35.456C28.9948 35.456 29.7428 35.68 30.3108 36.128C30.8788 36.568 31.1828 37.184 31.2228 37.976H29.0028C28.9868 37.704 28.8868 37.492 28.7028 37.34C28.5188 37.18 28.2828 37.1 27.9948 37.1C27.7468 37.1 27.5468 37.168 27.3948 37.304C27.2428 37.432 27.1668 37.62 27.1668 37.868C27.1668 38.14 27.2948 38.352 27.5508 38.504C27.8068 38.656 28.2068 38.82 28.7508 38.996C29.2948 39.18 29.7348 39.356 30.0708 39.524C30.4148 39.692 30.7108 39.936 30.9588 40.256C31.2068 40.576 31.3308 40.988 31.3308 41.492C31.3308 41.972 31.2068 42.408 30.9588 42.8C30.7188 43.192 30.3668 43.504 29.9028 43.736C29.4388 43.968 28.8908 44.084 28.2588 44.084Z"
        fill="#E4613D" />
    <path fill-rule="evenodd" clip-rule="evenodd"
        d="M18.9999 6.75024C24.1089 6.75024 28.2499 10.8922 28.2499 16.0002C28.2499 21.1082 24.1089 25.2502 18.9999 25.2502C13.8919 25.2502 9.74988 21.1082 9.74988 16.0002C9.74988 10.8922 13.8919 6.75024 18.9999 6.75024Z"
        stroke="#F0F0F0" stroke-width="1.5" stroke-linecap="round" stroke-linejoin="round" />
    <path opacity="0.4" d="M18.995 12.2043V16.6233" stroke="#F0F0F0" stroke-width="1.5" stroke-linecap="round"
        stroke-linejoin="round" />
    <path opacity="0.4" d="M18.995 19.7961H19.005" stroke="#F0F0F0" stroke-width="1.5" stroke-linecap="round"
        stroke-linejoin="round" />
    <defs>
        <filter id="filter0_d_231_1587" x="0" y="0" width="38" height="38" filterUnits="userSpaceOnUse"
            color-interpolation-filters="sRGB">
            <feFlood flood-opacity="0" result="BackgroundImageFix" />
            <feColorMatrix in="SourceAlpha" type="matrix" values="0 0 0 0 0 0 0 0 0 0 0 0 0 0 0 0 0 0 127 0"
                result="hardAlpha" />
            <feOffset dy="3" />
            <feGaussianBlur stdDeviation="2" />
            <feColorMatrix type="matrix" values="0 0 0 0 0.894118 0 0 0 0 0.380392 0 0 0 0 0.239216 0 0 0 0.4 0" />
            <feBlend mode="normal" in2="BackgroundImageFix" result="effect1_dropShadow_231_1587" />
            <feBlend mode="normal" in="SourceGraphic" in2="effect1_dropShadow_231_1587" result="shape" />
        </filter>
        <linearGradient id="paint0_linear_231_1587" x1="10" y1="1" x2="30" y2="31" gradientUnits="userSpaceOnUse">
            <stop stop-color="#EE725A" />
            <stop offset="1" stop-color="#E4613D" />
        </linearGradient>
    </defs>
</svg>