<svg width="400" height="680" viewBox="0 0 400 680" fill="none" xmlns="http://www.w3.org/2000/svg">
    <g clip-path="url(#clip0_318_2631)" filter="url(#filter0_d_318_2631)">
        <rect width="360" height="640" transform="translate(16 6)" fill="#F8F8F8" />
        <path
            d="M16.0132 50C15.1108 87.5591 60.5177 161.322 152.203 165.091C266.809 169.802 251.218 98.2471 319.056 186.011C336.257 208.265 370.586 129.888 376 135.646"
            stroke="#EE725A" stroke-width="2" />
        <path
            d="M187.228 357C175.871 357 166.385 352.869 159.171 344.74C135.789 318.756 142.069 260.922 142.336 258.524C142.47 257.191 143.806 256.125 145.142 256.258C146.478 256.392 147.547 257.724 147.413 259.057C147.413 259.59 141.267 317.023 162.912 341.276C169.191 348.338 177.341 351.803 187.228 351.803C213.014 351.803 226.776 336.345 229.314 304.364C229.448 303.431 229.448 302.365 229.581 301.166C230.383 289.173 231.719 269.184 245.748 269.184C251.359 269.184 253.364 275.581 255.368 281.71C258.173 290.505 260.044 293.97 264.319 293.17C269.396 292.104 270.866 282.51 272.336 273.981C273.805 264.654 275.275 255.992 281.822 255.992C283.292 255.992 284.36 257.191 284.36 258.524C284.36 259.99 283.158 261.056 281.822 261.056C279.551 261.056 278.214 269.318 277.279 274.781C275.676 284.908 273.805 296.368 265.388 298.234C256.036 300.233 252.829 290.505 250.558 283.443C249.222 279.445 247.618 274.514 245.748 274.514C236.529 274.514 235.46 291.571 234.659 301.832C234.525 303.031 234.525 304.097 234.391 305.03C231.586 339.41 215.686 357 187.228 357Z"
            fill="#EE725A" />
        <path
            d="M145.142 249.596C147.06 249.596 148.616 248.044 148.616 246.131C148.616 244.217 147.06 242.666 145.142 242.666C143.223 242.666 141.668 244.217 141.668 246.131C141.668 248.044 143.223 249.596 145.142 249.596Z"
            fill="#7DB1AF" />
        <path
            d="M145.142 250.262C142.87 250.262 141 248.396 141 246.131C141 243.866 142.87 242 145.142 242C147.413 242 149.284 243.866 149.284 246.131C149.284 248.396 147.413 250.262 145.142 250.262ZM145.142 243.199C143.539 243.199 142.336 244.532 142.336 245.998C142.336 247.597 143.672 248.796 145.142 248.796C146.745 248.796 147.948 247.464 147.948 245.998C147.948 244.532 146.745 243.199 145.142 243.199Z"
            fill="#7DB1AF" />
        <path
            d="M281.688 249.596C283.607 249.596 285.162 248.044 285.162 246.131C285.162 244.217 283.607 242.666 281.688 242.666C279.77 242.666 278.214 244.217 278.214 246.131C278.214 248.044 279.77 249.596 281.688 249.596Z"
            fill="#7DB1AF" />
        <path
            d="M281.688 250.262C279.417 250.262 277.546 248.396 277.546 246.131C277.546 243.866 279.417 242 281.688 242C283.96 242 285.83 243.866 285.83 246.131C285.83 248.396 283.96 250.262 281.688 250.262ZM281.688 243.199C280.085 243.199 278.882 244.532 278.882 245.998C278.882 247.597 280.219 248.796 281.688 248.796C283.291 248.796 284.494 247.464 284.494 245.998C284.494 244.532 283.291 243.199 281.688 243.199Z"
            fill="#7DB1AF" />
        <path
            d="M217.824 258.524C217.824 258.524 216.622 258.124 214.617 257.857C213.549 257.724 212.346 257.591 211.01 257.591C209.674 257.591 208.071 257.724 206.467 258.124C204.864 258.524 203.261 259.19 201.791 260.123C200.322 261.056 198.852 262.388 197.649 263.987C196.447 265.586 195.378 267.452 194.443 269.318C193.641 271.316 192.84 273.448 192.172 275.581C191.904 276.647 191.503 277.713 191.37 278.912C191.103 279.978 190.835 281.177 190.702 282.243C190.568 283.309 190.301 284.509 190.167 285.575C190.034 286.641 189.9 287.84 189.633 288.906C189.366 291.038 189.099 293.17 188.831 295.169C188.698 297.168 188.431 299.034 188.297 300.899C188.163 302.632 188.03 304.231 187.896 305.696C187.762 307.162 187.629 308.362 187.629 309.428C187.495 311.56 187.228 312.759 187.228 312.759C187.228 312.759 186.961 311.56 186.56 309.561C186.293 308.228 186.159 306.896 185.892 305.43C185.758 303.964 185.491 302.365 185.358 300.499C185.224 298.767 185.09 296.768 184.957 294.636C184.957 292.504 184.957 290.372 185.09 288.107C185.224 286.907 185.224 285.841 185.358 284.642C185.491 283.443 185.625 282.243 185.758 281.044C185.892 279.845 186.159 278.645 186.426 277.446C186.694 276.247 186.961 275.048 187.362 273.848C188.03 271.45 188.965 269.051 190.034 266.919C191.236 264.654 192.572 262.521 194.176 260.789C195.913 258.924 197.783 257.458 199.921 256.525C202.058 255.592 204.196 255.059 206.067 254.926C209.941 254.659 213.014 255.725 214.885 256.658C215.82 257.058 216.622 257.591 217.022 257.857C217.557 258.257 217.824 258.524 217.824 258.524Z"
            fill="#EE725A" />
        <path
            d="M202.593 321.82C202.593 321.82 202.593 321.954 202.593 322.353C202.593 322.62 202.593 323.153 202.459 323.686C202.326 324.752 201.791 326.351 200.99 328.083C200.054 329.816 198.718 331.681 196.447 333.28C195.378 334.08 194.176 334.879 192.706 335.279C191.236 335.812 189.633 336.079 188.03 336.079C186.426 336.079 184.823 335.679 183.353 335.279C181.884 334.746 180.681 334.08 179.612 333.147C178.544 332.348 177.742 331.415 176.94 330.615C176.272 329.682 175.604 328.883 175.203 327.95C174.669 327.151 174.402 326.218 174.135 325.552C173.867 324.885 173.734 324.219 173.6 323.553C173.467 323.02 173.467 322.487 173.333 322.22C173.333 321.954 173.333 321.687 173.333 321.687V321.554C173.333 321.421 173.467 321.287 173.6 321.287C173.734 321.287 173.734 321.287 173.734 321.421C173.734 321.421 174.135 321.82 174.669 322.62C174.936 323.02 175.337 323.419 175.871 323.952C176.272 324.486 176.807 325.019 177.475 325.685C178.009 326.351 178.677 326.884 179.479 327.55C180.281 328.083 181.082 328.75 181.884 329.283C182.819 329.816 183.754 330.216 184.823 330.615C185.892 330.882 186.961 331.148 188.03 331.148C189.099 331.148 190.167 331.015 191.236 330.749C192.305 330.482 193.24 330.082 194.176 329.549C196.046 328.483 197.516 327.284 198.585 326.085C199.787 324.885 200.589 323.819 201.257 323.02C201.791 322.22 202.192 321.82 202.192 321.82C202.192 321.687 202.459 321.687 202.459 321.687L202.593 321.82Z"
            fill="#EE725A" />
        <path
            d="M219.828 283.043C219.695 284.509 219.427 285.975 219.027 287.44C218.626 288.906 218.091 290.372 217.423 291.705C216.755 293.037 215.954 294.503 214.751 295.702C214.217 296.368 213.415 296.902 212.613 297.435C211.812 297.968 210.743 298.367 209.808 298.501C208.739 298.634 207.67 298.634 206.601 298.234C205.666 297.968 204.731 297.568 203.929 297.035C202.459 295.969 201.257 294.769 200.322 293.437C199.386 292.104 198.585 290.772 198.05 289.306C197.783 288.64 197.516 287.84 197.249 287.174C196.981 286.508 196.848 285.708 196.581 284.908L199.52 284.775C198.852 286.508 198.184 288.24 197.516 290.105C197.115 291.038 196.714 291.838 196.447 292.771C196.046 293.703 195.645 294.503 195.245 295.436C195.245 294.503 195.378 293.57 195.512 292.637C195.645 291.705 195.645 290.772 195.779 289.839C196.046 287.973 196.313 286.108 196.581 284.242C196.714 283.443 197.516 282.91 198.317 283.043C198.718 283.176 199.119 283.309 199.386 283.709L199.654 284.109L200.722 285.841C201.123 286.374 201.524 287.041 201.925 287.574C202.727 288.64 203.528 289.706 204.33 290.772C205.131 291.705 206.067 292.637 207.002 293.17C207.937 293.703 208.605 293.97 209.407 293.97C210.075 293.97 211.01 293.57 211.945 292.904C212.881 292.238 213.816 291.305 214.751 290.239C215.686 289.173 216.488 288.107 217.423 287.041C218.091 285.308 218.893 284.242 219.828 283.043Z"
            fill="#EE725A" />
        <path
            d="M217.691 291.705C217.691 291.838 217.691 291.838 217.691 291.971C217.691 292.104 217.824 292.504 217.958 292.771C218.225 293.437 218.759 294.37 219.427 295.169C219.828 295.569 220.229 295.969 220.63 296.235C220.897 296.368 221.031 296.502 221.298 296.635C221.565 296.768 221.699 296.902 221.966 296.902C222.367 297.035 222.768 297.168 223.035 297.301C223.302 297.435 223.436 297.435 223.436 297.435C223.436 297.435 223.302 297.435 223.035 297.568C222.768 297.701 222.367 297.701 221.966 297.834C221.699 297.834 221.432 297.834 221.164 297.834C220.897 297.834 220.63 297.834 220.229 297.834C219.561 297.834 218.893 297.701 218.225 297.435C216.889 297.035 215.553 296.235 214.751 295.569C214.35 295.302 213.95 294.903 213.682 294.636C213.549 294.503 213.415 294.37 213.415 294.37C213.281 294.236 213.281 294.236 213.281 294.236C212.613 293.037 213.014 291.438 214.217 290.772C215.419 289.972 216.889 290.505 217.691 291.705Z"
            fill="#EE725A" />
        <path
            d="M214.484 296.102C214.484 296.102 214.484 296.235 214.484 296.368C214.484 296.502 214.35 296.768 214.35 297.035C214.217 297.568 214.217 298.367 214.217 299.167C214.217 299.966 214.35 300.633 214.751 301.032C214.885 301.166 214.885 301.299 215.018 301.299C215.152 301.432 215.152 301.432 215.286 301.432C215.419 301.565 215.553 301.565 215.553 301.565C215.553 301.565 215.419 301.565 215.286 301.699C215.152 301.832 214.751 301.832 214.35 301.699C213.549 301.565 212.747 300.899 211.945 300.233C211.277 299.567 210.609 298.767 210.208 298.234C209.941 297.968 209.808 297.701 209.674 297.435C209.54 297.168 209.54 297.168 209.54 297.168C209.273 295.835 210.075 294.503 211.411 294.103C212.881 293.837 214.217 294.636 214.484 296.102Z"
            fill="#EE725A" />
        <path d="M92.5915 390.082H86V385.659H104.246V390.082H97.6546V408.435H92.5915V390.082Z" fill="#EE725A" />
        <path
            d="M121.346 385C128.606 385 133.86 389.706 133.86 396.953C133.86 404.294 128.606 408.906 121.346 408.906C114.086 408.906 108.832 404.2 108.832 396.953C108.927 389.706 114.181 385 121.346 385ZM121.346 404.294C125.645 404.294 128.511 401.188 128.511 396.953C128.511 392.718 125.645 389.612 121.346 389.612C117.047 389.612 114.181 392.718 114.181 396.953C114.181 401.282 117.047 404.294 121.346 404.294Z"
            fill="#EE725A" />
        <path
            d="M160.036 399.588C160.036 404.953 156.692 409 150.292 409C143.891 409 140.547 405.047 140.547 399.588V385.565H145.611V399.4C145.611 402.224 147.617 404.294 150.292 404.294C152.966 404.294 154.972 402.129 154.972 399.4V385.565H160.036V399.588Z"
            fill="#EE725A" />
        <path d="M168.251 385.565H173.314V403.729H182.772V408.341H168.251V385.565Z" fill="#EE725A" />
        <path
            d="M200.062 385C207.323 385 212.577 389.706 212.577 396.953C212.577 404.294 207.323 408.906 200.062 408.906C192.802 408.906 187.548 404.2 187.548 396.953C187.644 389.706 192.898 385 200.062 385ZM200.062 404.294C204.361 404.294 207.227 401.188 207.227 396.953C207.227 392.718 204.361 389.612 200.062 389.612C195.764 389.612 192.898 392.718 192.898 396.953C192.898 401.282 195.764 404.294 200.062 404.294Z"
            fill="#EE725A" />
        <path
            d="M238.752 399.588C238.752 404.953 235.408 409 229.008 409C222.607 409 219.264 405.047 219.264 399.588V385.565H224.327V399.4C224.327 402.224 226.333 404.294 229.008 404.294C231.683 404.294 233.689 402.129 233.689 399.4V385.565H238.752V399.588Z"
            fill="#EE725A" />
        <path
            d="M245.152 406.741L258.718 387.541H245.344V385.565H261.488V387.259L247.827 406.365H261.775V408.341H245.152V406.741Z"
            fill="#7DB1AF" />
        <path
            d="M269.035 385.565H283.173V387.541H271.232V395.635H282.409V397.612H271.136V406.459H283.651V408.435H269.035V385.565Z"
            fill="#7DB1AF" />
        <path
            d="M291.675 385.565H294.446L308.489 405.518H308.584V385.565H310.781V408.341H308.011L293.872 388.388H293.777V408.341H291.58V385.565H291.675Z"
            fill="#7DB1AF" />
    </g>
    <defs>
        <filter id="filter0_d_318_2631" x="0" y="0" width="400" height="680" filterUnits="userSpaceOnUse"
            color-interpolation-filters="sRGB">
            <feFlood flood-opacity="0" result="BackgroundImageFix" />
            <feColorMatrix in="SourceAlpha" type="matrix" values="0 0 0 0 0 0 0 0 0 0 0 0 0 0 0 0 0 0 127 0"
                result="hardAlpha" />
            <feMorphology radius="8" operator="erode" in="SourceAlpha" result="effect1_dropShadow_318_2631" />
            <feOffset dx="4" dy="14" />
            <feGaussianBlur stdDeviation="14" />
            <feColorMatrix type="matrix" values="0 0 0 0 0 0 0 0 0 0 0 0 0 0 0 0 0 0 0.25 0" />
            <feBlend mode="normal" in2="BackgroundImageFix" result="effect1_dropShadow_318_2631" />
            <feBlend mode="normal" in="SourceGraphic" in2="effect1_dropShadow_318_2631" result="shape" />
        </filter>
        <clipPath id="clip0_318_2631">
            <rect width="360" height="640" fill="white" transform="translate(16 6)" />
        </clipPath>
    </defs>
</svg>