<svg width="30" height="30" viewBox="0 0 30 30" fill="none" xmlns="http://www.w3.org/2000/svg">
    <path
        d="M24.9937 8.35999C26.1143 7.6901 26.9527 6.63528 27.3525 5.39249C26.2995 6.01724 25.1475 6.45733 23.9462 6.69374C22.2807 4.9319 19.6419 4.50314 17.5042 5.64706C15.3666 6.79097 14.2594 9.22435 14.8012 11.5875C10.4882 11.371 6.46995 9.33363 3.74624 5.98249C2.32479 8.43426 3.05118 11.5685 5.40624 13.145C4.55463 13.1176 3.7219 12.887 2.97749 12.4725C2.97749 12.495 2.97749 12.5175 2.97749 12.54C2.97798 15.0939 4.77795 17.2938 7.28124 17.8C6.49132 18.0149 5.66275 18.0465 4.85874 17.8925C5.56274 20.0766 7.57568 21.5728 9.86999 21.6175C7.96978 23.1089 5.62308 23.9177 3.20749 23.9137C2.77933 23.9144 2.3515 23.8897 1.92624 23.84C4.37923 25.4163 7.2342 26.2529 10.15 26.25C14.2065 26.2778 18.105 24.6786 20.9734 21.81C23.8418 18.9414 25.4407 15.0428 25.4125 10.9862C25.4125 10.7537 25.4071 10.5225 25.3962 10.2925C26.4468 9.53324 27.3535 8.59267 28.0737 7.51499C27.095 7.94881 26.0568 8.23364 24.9937 8.35999Z"
        fill="#7DB1AF" />
</svg>