<svg width="31" height="31" viewBox="0 0 31 31" fill="none" xmlns="http://www.w3.org/2000/svg">
    <g clip-path="url(#clip0_387_2555)">
        <path
            d="M15.4964 30.9928C13.1551 31.001 10.8431 30.4719 8.73844 29.446C7.96604 29.0696 7.22626 28.6296 6.52674 28.1306L6.31713 27.9788C4.39565 26.5594 2.82344 24.7202 1.72026 22.6013C0.584465 20.4056 -0.00558967 17.9685 3.99074e-05 15.4964C-0.000910049 13.4611 0.39927 11.4456 1.1777 9.56506C1.95613 7.68452 3.09755 5.97583 4.53671 4.53667C5.97587 3.09751 7.68456 1.95609 9.56509 1.17766C11.4456 0.399231 13.4611 -0.000948269 15.4964 1.68731e-06C17.5321 -0.000947764 19.5479 0.399179 21.4289 1.17752C23.3098 1.95586 25.019 3.09717 26.4587 4.53623C27.8984 5.9753 29.0405 7.68393 29.8198 9.56451C30.599 11.4451 31 13.4608 31 15.4964C31.0132 17.9645 30.4305 20.3993 29.3015 22.5941C28.2032 24.7141 26.633 26.5538 24.7119 27.9716C23.9894 28.505 23.2201 28.9719 22.4134 29.3665L22.2906 29.4316C20.1767 30.4693 17.8513 31.0036 15.4964 30.9928ZM15.4964 23.2446C14.3577 23.2423 13.2406 23.555 12.2685 24.1481C11.2965 24.7413 10.5075 25.5918 9.98885 26.6055C11.7021 27.4541 13.5882 27.8955 15.5 27.8955C17.4119 27.8955 19.298 27.4541 21.0112 26.6055C20.492 25.5907 19.7019 24.7395 18.7285 24.1462C17.755 23.553 16.6364 23.2409 15.4964 23.2446ZM15.4964 20.1439C17.1458 20.1465 18.7651 20.5859 20.1896 21.4175C21.614 22.249 22.7928 23.4431 23.606 24.8781C26.0948 22.728 27.6276 19.6775 27.8675 16.3973C28.1074 13.1172 27.0347 9.87613 24.8853 7.38681C23.8208 6.1542 22.5237 5.14346 21.0683 4.41238C19.6129 3.6813 18.0277 3.2442 16.4033 3.12606C14.7789 3.00792 13.1471 3.21106 11.6013 3.72387C10.0554 4.23668 8.62579 5.04911 7.39407 6.11471C6.16169 7.17865 5.15112 8.47508 4.42013 9.92986C3.68914 11.3846 3.25208 12.9692 3.13394 14.5931C3.01579 16.2169 3.21888 17.848 3.7316 19.3933C4.24431 20.9386 5.05658 22.3676 6.12198 23.5987C6.51465 24.0553 6.93979 24.4828 7.39407 24.8781C8.20668 23.4441 9.38433 22.2508 10.8074 21.4193C12.2305 20.5878 13.8482 20.1478 15.4964 20.1439ZM15.4964 18.5971C13.853 18.5952 12.2774 17.941 11.116 16.7782C9.95458 15.6154 9.30221 14.0391 9.30221 12.3957C9.29936 11.5801 9.45742 10.7719 9.76734 10.0175C10.0773 9.26306 10.533 8.57718 11.1083 7.99912C11.6837 7.42105 12.3675 6.96217 13.1204 6.64874C13.8734 6.3353 14.6808 6.17348 15.4964 6.17254C17.1412 6.17254 18.7185 6.8259 19.8815 7.9889C21.0445 9.15189 21.6979 10.7293 21.6979 12.374C21.7007 13.1902 21.5424 13.9989 21.2321 14.7538C20.9217 15.5087 20.4653 16.1949 19.8892 16.7731C19.3131 17.3512 18.6284 17.81 17.8746 18.123C17.1208 18.436 16.3126 18.5971 15.4964 18.5971ZM15.4964 9.29494C14.6753 9.29686 13.8885 9.62438 13.3086 10.2057C12.7286 10.787 12.4029 11.5746 12.4029 12.3957C12.4029 13.2168 12.7286 14.0044 13.3086 14.5857C13.8885 15.1669 14.6753 15.4945 15.4964 15.4964C16.3188 15.4964 17.1075 15.1697 17.689 14.5882C18.2705 14.0067 18.5972 13.218 18.5972 12.3957C18.5972 11.5733 18.2705 10.7846 17.689 10.2031C17.1075 9.62162 16.3188 9.29494 15.4964 9.29494Z"
            fill="#1E2625" />
    </g>
    <defs>
        <clipPath id="clip0_387_2555">
            <rect width="31" height="31" fill="white" />
        </clipPath>
    </defs>
</svg>